<svg width="108" height="102" viewBox="0 0 108 102" fill="none" xmlns="http://www.w3.org/2000/svg">
<path d="M85.281 12.8564C73.2103 12.8564 63.4251 22.4498 63.4251 34.2838L107.137 34.2838C107.137 22.4498 97.3517 12.8564 85.281 12.8564Z" fill="#FFB636"/>
<path d="M67.9736 67.9736C86.744 49.2032 86.744 18.7704 67.9736 -8.41625e-06L0 67.9736C18.7704 86.744 49.2032 86.744 67.9736 67.9736Z" fill="#9B6AFF"/>
<path d="M28.2842 28.2841C15.5035 28.2841 5.14263 38.645 5.14263 51.4257L51.4258 51.4257C51.4258 38.645 41.0649 28.2841 28.2842 28.2841Z" fill="#8050E3"/>
<circle cx="64.7104" cy="25.2843" r="6.42822" fill="#21064E"/>
<rect x="21.4277" y="80.567" width="6.85676" height="16.2848" fill="#9B6AFF"/>
<path d="M29.9984 88.2808C25.2648 88.2808 21.4274 92.1182 21.4274 96.8518L38.5693 96.8518C38.5693 92.1182 34.732 88.2808 29.9984 88.2808Z" fill="#FFB636"/>
</svg>
